<svg width="128" height="22" viewBox="0 0 128 22" fill="none" xmlns="http://www.w3.org/2000/svg">
<g clip-path="url(#clip0_6086_5903)">
<path d="M1.39277 16.784C0.464256 15.1609 0 13.3016 0 11.2092C0 9.11685 0.473242 7.17391 1.42272 5.55978C2.3722 3.94565 3.69908 2.68424 5.40634 1.77853C7.11361 0.872828 9.09643 0.41848 11.3518 0.41848C12.5709 0.41848 13.5323 0.529078 14.2422 0.747284C14.9521 0.965491 15.4552 1.07609 15.7548 1.07609C15.9944 1.07609 16.234 1.03723 16.4736 0.956523V4.06522H16.264C16.1232 3.82609 15.8955 3.58696 15.5751 3.34783C15.2546 3.1087 14.9161 2.92038 14.5567 2.77989C13.6372 2.4212 12.5888 2.24185 11.4117 2.24185C9.53373 2.24185 7.88637 2.61549 6.46964 3.36277C5.05291 4.11006 3.94768 5.15625 3.15994 6.50136C2.3722 7.84647 1.97683 9.41576 1.97683 11.2092C1.97683 13.0027 2.35722 14.4883 3.11501 15.8424C3.8728 17.1965 4.92711 18.2576 6.27495 19.0258C7.62279 19.794 9.15633 20.1766 10.8726 20.1766C12.4511 20.1766 13.8169 19.8568 14.976 19.2201C16.1352 18.5834 17.0367 17.6867 17.6867 16.5299C18.3366 15.3731 18.6601 14.019 18.6601 12.4647V12.106H12.7895C11.5525 12.106 10.7737 12.4438 10.4533 13.1223H10.2436V10.1929C10.7618 10.3334 11.3728 10.4022 12.0707 10.4022H21.2959V10.5815C20.8975 10.8416 20.6969 11.3198 20.6969 12.0163C20.6969 14.0101 20.2925 15.7527 19.4838 17.2473C18.6751 18.7418 17.5369 19.9076 16.0693 20.7446C14.6016 21.5815 12.8704 22 10.8726 22C8.75498 22 6.87998 21.5367 5.2416 20.6101C3.60323 19.6834 2.32128 18.4071 1.39277 16.784Z" fill="currentColor"/>
<path d="M24.0515 10.1033C24.0515 9.50544 23.9676 9.05109 23.7969 8.74321C23.6262 8.43533 23.3925 8.21114 23.093 8.07065V7.86142H25.8486V9.86413C26.208 9.20652 26.7472 8.67745 27.466 8.27989C28.1849 7.88234 28.9337 7.68207 29.7124 7.68207C29.991 7.68207 30.2605 7.71196 30.5211 7.77174V10.2826H30.3414C29.982 9.84321 29.5117 9.625 28.9337 9.625C28.3556 9.625 27.8015 9.84022 27.2114 10.2677C26.6214 10.6951 26.1871 11.2302 25.9085 11.8669V19.4293C25.9085 20.0481 25.9774 20.4815 26.1182 20.7296C26.2589 20.9777 26.4566 21.184 26.7172 21.3424V21.5217H23.2727V21.3424C23.5513 21.184 23.752 20.9807 23.8718 20.7296C23.9916 20.4815 24.0515 20.0481 24.0515 19.4293V10.1033Z" fill="currentColor"/>
<path d="M37.3502 21.8207C35.592 21.8207 34.1992 21.456 33.1719 20.7296C32.1445 20.0033 31.6293 19.0318 31.6293 17.8152C31.6293 16.5986 32.0876 15.7019 33.0071 15.0054C33.9267 14.309 35.4123 13.7799 37.47 13.4212L40.2256 12.9429C40.1866 11.6277 39.8512 10.6622 39.2222 10.0435C38.5932 9.42473 37.6587 9.11685 36.4217 9.11685C35.8017 9.11685 35.2445 9.21549 34.7443 9.41576C34.4838 9.49647 34.2711 9.61006 34.1004 9.75951C33.9296 9.90897 33.7769 10.0644 33.6361 10.2228H33.4864V7.62228C33.5852 7.64321 33.696 7.65815 33.8158 7.66712C33.9356 7.67609 34.0465 7.68207 34.1453 7.68207C34.3849 7.68207 34.6994 7.64321 35.0888 7.5625C35.4782 7.48179 35.9933 7.44294 36.6313 7.44294C38.4075 7.44294 39.7613 7.90625 40.6898 8.83288C41.6183 9.75951 42.0826 11.1495 42.0826 13.0027V19.3995C42.0826 20.1587 42.3611 20.6459 42.9213 20.8641V21.0435C41.9418 21.2826 41.0193 21.4709 40.1507 21.6114C39.2821 21.7519 38.3476 21.8207 37.3502 21.8207ZM40.2256 14.3478L37.9792 14.7663C36.3408 15.0861 35.1876 15.4688 34.5197 15.9171C33.8518 16.3655 33.5163 16.9783 33.5163 17.7554C33.5163 18.5326 33.8548 19.1693 34.5347 19.6087C35.2146 20.0481 36.1521 20.2663 37.3502 20.2663C37.8084 20.2663 38.2577 20.2424 38.698 20.1916C39.1383 20.1408 39.6475 20.0481 40.2256 19.9076V14.3478Z" fill="currentColor"/>
<path d="M45.9763 10.1033C45.9763 9.50544 45.8925 9.05109 45.7218 8.74321C45.551 8.43533 45.3174 8.21114 45.0179 8.07065V7.86141H47.7435V9.44565C48.1628 8.84783 48.7409 8.36359 49.4807 7.99593C50.2205 7.62826 50.9993 7.44294 51.817 7.44294C53.1738 7.44294 54.2371 7.86141 55.0069 8.69837C55.7767 9.53533 56.16 10.6802 56.16 12.1359V19.4293C56.16 20.0481 56.2259 20.4815 56.3547 20.7296C56.4835 20.9777 56.6902 21.184 56.9687 21.3424V21.5217H53.5243V21.3424C53.8028 21.184 54.0035 20.9807 54.1233 20.7296C54.2431 20.4815 54.303 20.0481 54.303 19.4293V12.4647C54.303 11.4484 54.0424 10.6473 53.5243 10.0584C53.0061 9.46957 52.2753 9.17663 51.3378 9.17663C50.6399 9.17663 49.969 9.35 49.331 9.69973C48.693 10.0495 48.1928 10.5217 47.8334 11.1196V19.4293C47.8334 20.0481 47.8993 20.4815 48.0281 20.7296C48.1569 20.9777 48.3635 21.184 48.6421 21.3424V21.5217H45.1976V21.3424C45.4761 21.184 45.6768 20.9807 45.7966 20.7296C45.9164 20.4815 45.9763 20.0481 45.9763 19.4293V10.1033Z" fill="currentColor"/>
<path d="M67.7215 7.26359C68.6411 5.01277 69.5636 3.36875 70.4921 2.33152C71.4206 1.29429 72.5828 0.777175 73.9815 0.777175C74.2002 0.777175 74.3769 0.783154 74.5057 0.792121C74.6345 0.801088 74.7393 0.807067 74.8202 0.807067C74.919 0.807067 75.0089 0.801088 75.0897 0.792121C75.1706 0.783154 75.2485 0.768208 75.3294 0.747284V3.28804H75.1496C74.8292 2.90843 74.3919 2.72011 73.8318 2.72011C73.4514 2.72011 73.047 2.84864 72.6187 3.1087C72.1904 3.36875 71.7351 3.84701 71.2559 4.54348C70.7766 5.23995 70.2585 6.26821 69.6984 7.62228L66.7032 14.9755C66.0442 16.5688 65.3913 17.8601 64.7413 18.8465C64.0914 19.8329 63.3635 20.5443 62.5548 20.9837C61.7461 21.4231 60.7936 21.6413 59.6944 21.6413C59.0564 21.6413 58.5652 21.5905 58.2267 21.4918V19.1005H58.4364C58.8168 19.519 59.305 19.7283 59.9041 19.7283C60.9614 19.7283 61.845 19.3098 62.5548 18.4728C63.2647 17.6359 63.9685 16.3505 64.6664 14.6168L67.7215 7.26359Z" fill="currentColor"/>
<path d="M78.1598 2.51087C77.9801 2.11332 77.7794 1.79348 77.5608 1.55435C77.3421 1.31522 77.1504 1.16576 76.9917 1.10598V0.89674H80.9154V1.10598C80.5949 1.2644 80.3972 1.48859 80.3164 1.77853C80.2355 2.06848 80.3074 2.45109 80.526 2.92935L87.4749 17.9647L94.304 2.80978C94.5226 2.33152 94.5676 1.95788 94.4388 1.68886C94.31 1.41984 94.1033 1.22554 93.8247 1.10598V0.89674H97.7185V1.10598C97.5777 1.16576 97.395 1.3212 97.1644 1.56929C96.9338 1.81739 96.7091 2.16114 96.4905 2.60054L87.5648 21.8505H87.2653L78.1598 2.51087Z" fill="currentColor"/>
<path d="M101.702 19.4293C101.702 20.0481 101.768 20.4815 101.897 20.7296C102.026 20.9777 102.232 21.184 102.511 21.3424V21.5217H99.0664V21.3424C99.3449 21.184 99.5456 20.9807 99.6654 20.7296C99.7852 20.4815 99.8451 20.0481 99.8451 19.4293V10.1033C99.8451 9.50543 99.7613 9.05109 99.5905 8.74321C99.4198 8.43533 99.1862 8.21114 98.8867 8.07065V7.86141H101.702V19.4293ZM99.6055 3.61685C99.327 3.33886 99.1862 2.9981 99.1862 2.60054C99.1862 2.18206 99.324 1.83831 99.6055 1.56929C99.8841 1.30027 100.234 1.16576 100.654 1.16576C101.073 1.16576 101.424 1.30027 101.702 1.56929C101.981 1.83831 102.121 2.18206 102.121 2.60054C102.121 3.01902 101.981 3.33886 101.702 3.61685C101.424 3.89484 101.073 4.03533 100.654 4.03533C100.234 4.03533 99.8841 3.89484 99.6055 3.61685Z" fill="currentColor"/>
<path d="M107.693 19.4293C107.693 20.0481 107.758 20.4815 107.887 20.7296C108.016 20.9777 108.223 21.184 108.501 21.3424V21.5217H105.057V21.3424C105.335 21.184 105.536 20.9807 105.656 20.7296C105.776 20.4815 105.836 20.0481 105.836 19.4293V2.24185C105.836 1.64402 105.752 1.18967 105.581 0.881794C105.41 0.573913 105.177 0.349728 104.877 0.209239V0H107.693V19.4293Z" fill="currentColor"/>
<path d="M113.683 19.4293C113.683 20.0481 113.746 20.4815 113.878 20.7296C114.006 20.9777 114.213 21.184 114.492 21.3424V21.5217H111.047V21.3424C111.326 21.184 111.526 20.9807 111.646 20.7296C111.766 20.4815 111.826 20.0481 111.826 19.4293V2.24185C111.826 1.64402 111.742 1.18967 111.571 0.881794C111.401 0.573913 111.167 0.349728 110.867 0.209239V0H113.683V19.4293Z" fill="currentColor"/>
<path d="M122.429 21.8207C120.671 21.8207 119.278 21.456 118.251 20.7296C117.223 20.0033 116.708 19.0318 116.708 17.8152C116.708 16.5986 117.166 15.7019 118.086 15.0054C119.005 14.309 120.491 13.7799 122.549 13.4212L125.304 12.9429C125.265 11.6277 124.93 10.6622 124.301 10.0435C123.672 9.42473 122.737 9.11685 121.5 9.11685C120.88 9.11685 120.323 9.21549 119.823 9.41576C119.563 9.49647 119.35 9.61006 119.179 9.75951C119.008 9.90897 118.856 10.0644 118.715 10.2228H118.565V7.62228C118.664 7.64321 118.775 7.65815 118.895 7.66712C119.014 7.67609 119.125 7.68207 119.224 7.68207C119.464 7.68207 119.778 7.64321 120.168 7.5625C120.557 7.48179 121.072 7.44294 121.71 7.44294C123.486 7.44294 124.84 7.90625 125.769 8.83288C126.697 9.75951 127.161 11.1495 127.161 13.0027V19.3995C127.161 20.1587 127.44 20.6459 128 20.8641V21.0435C127.021 21.2826 126.098 21.4709 125.229 21.6114C124.361 21.7519 123.426 21.8207 122.429 21.8207ZM125.304 14.3478L123.058 14.7663C121.42 15.0861 120.266 15.4688 119.598 15.9171C118.931 16.3655 118.595 16.9783 118.595 17.7554C118.595 18.5326 118.934 19.1693 119.613 19.6087C120.293 20.0481 121.231 20.2663 122.429 20.2663C122.887 20.2663 123.337 20.2424 123.777 20.1916C124.217 20.1408 124.726 20.0481 125.304 19.9076V14.3478Z" fill="currentColor"/>
</g>
<defs>
<clipPath id="clip0_6086_5903">
<rect width="128" height="22" fill="white"/>
</clipPath>
</defs>
</svg>
